<?xml version="1.0" standalone="no"?>
<!DOCTYPE svg PUBLIC "-//W3C//DTD SVG 20010904//EN"
 "http://www.w3.org/TR/2001/REC-SVG-20010904/DTD/svg10.dtd">
<svg version="1.0" xmlns="http://www.w3.org/2000/svg"
 width="1120.000000pt" height="1120.000000pt" viewBox="0 0 1120.000000 1120.000000"
 preserveAspectRatio="xMidYMid meet">
<metadata>
Created by potrace 1.14, written by Peter Selinger 2001-2017
</metadata>
<g transform="translate(0.000000,1120.000000) scale(0.100000,-0.100000)"
fill="#000000" stroke="none">
<path d="M4870 10961 c-224 -133 -332 -197 -382 -229 -71 -46 -298 -200 -359
-244 -82 -60 -283 -211 -329 -248 -359 -290 -546 -429 -1045 -776 -49 -35
-109 -77 -132 -94 -24 -17 -107 -74 -185 -126 -172 -116 -175 -118 -200 -169
-18 -34 -20 -51 -15 -130 3 -49 13 -122 21 -161 27 -124 125 -394 202 -553
101 -210 178 -323 306 -448 107 -103 178 -149 268 -173 25 -6 60 -20 78 -31
19 -11 38 -16 44 -13 6 4 8 -1 4 -12 -27 -90 -68 -285 -73 -351 -5 -68 -3 -87
11 -108 32 -49 85 -50 87 -1 1 15 2 17 6 4 2 -9 -7 -54 -21 -100 -13 -46 -54
-195 -91 -333 -36 -137 -73 -270 -80 -295 -8 -25 -35 -126 -60 -225 -53 -204
-107 -352 -227 -620 -27 -60 -61 -137 -75 -170 -42 -98 -46 -105 -54 -99 -5 3
-31 -41 -59 -97 -28 -55 -46 -98 -39 -94 7 5 10 3 7 -6 -3 -8 -11 -13 -17 -11
-7 1 -10 -2 -7 -7 8 -13 -4 -42 -15 -36 -4 3 -18 -13 -29 -36 -12 -22 -16 -38
-9 -34 7 5 10 3 7 -6 -3 -8 -11 -13 -17 -11 -7 1 -10 -2 -6 -7 8 -14 -23 -73
-35 -66 -5 3 -12 0 -16 -6 -4 -8 -3 -9 4 -5 15 9 15 1 1 -25 -5 -11 -14 -17
-19 -14 -6 4 -7 -1 -3 -11 5 -13 3 -15 -7 -9 -9 5 -11 4 -6 -3 10 -16 -12 -54
-26 -46 -7 4 -8 3 -4 -4 8 -14 -12 -55 -23 -47 -5 2 -16 -6 -25 -20 -9 -14
-24 -37 -33 -52 -12 -18 -13 -24 -4 -19 9 6 12 5 9 -5 -3 -8 -10 -14 -16 -14
-5 0 -14 -4 -19 -9 -5 -5 -3 -6 4 -2 19 10 16 -5 -7 -39 -11 -17 -20 -23 -20
-15 0 8 -16 -8 -36 -35 -42 -60 -66 -103 -35 -65 24 29 28 15 5 -18 -8 -12
-19 -20 -24 -17 -5 3 -12 0 -16 -6 -5 -8 -3 -9 6 -4 8 5 11 3 8 -6 -3 -8 -10
-14 -16 -14 -6 0 -23 -18 -39 -40 -41 -57 -48 -69 -35 -61 17 10 15 -6 -4 -32
-8 -12 -19 -20 -24 -17 -4 3 -25 -19 -46 -47 -20 -29 -30 -47 -21 -39 10 8 17
9 17 3 0 -11 -19 -27 -34 -27 -5 0 -16 -11 -25 -25 -11 -17 -12 -22 -2 -16 9
6 12 5 9 -5 -3 -8 -10 -14 -16 -14 -6 0 -17 -6 -24 -14 -10 -10 -10 -12 0 -7
6 4 12 3 12 -2 0 -12 -25 -33 -32 -27 -3 3 -11 -3 -19 -12 -13 -16 -12 -17 4
-4 9 7 17 9 17 3 0 -12 -25 -33 -32 -26 -9 8 -81 -98 -82 -121 -1 -11 -7 -19
-13 -18 -6 1 -10 -5 -9 -15 0 -9 -4 -17 -11 -17 -6 0 -15 -4 -20 -9 -5 -5 -2
-6 6 -1 9 5 12 3 9 -6 -3 -8 -10 -14 -16 -14 -11 0 -53 -50 -74 -89 -8 -14 -7
-17 2 -11 8 5 11 3 8 -6 -3 -8 -10 -14 -16 -14 -5 0 -14 -4 -19 -9 -5 -5 -2
-6 6 -1 9 5 12 3 9 -6 -3 -8 -10 -14 -16 -14 -5 0 -14 -4 -19 -9 -5 -5 -2 -6
6 -1 9 5 12 3 9 -6 -3 -8 -10 -14 -16 -14 -6 0 -23 -15 -37 -34 -28 -39 -31
-46 -14 -35 7 4 10 1 7 -7 -3 -8 -10 -13 -16 -12 -5 1 -9 -5 -8 -15 0 -9 -5
-16 -12 -14 -8 1 -11 -2 -7 -8 8 -12 -13 -52 -24 -46 -4 3 -24 -18 -43 -47
-47 -70 -54 -82 -40 -73 17 10 15 -6 -4 -32 -8 -12 -19 -20 -23 -17 -8 4 -24
-16 -77 -100 -16 -26 -16 -28 -1 -16 23 18 21 1 -4 -29 -14 -16 -19 -19 -15
-7 10 30 0 19 -39 -46 -50 -82 -50 -81 -37 -73 15 9 15 1 1 -25 -5 -11 -14
-17 -19 -14 -4 3 -19 -12 -31 -32 -13 -21 -30 -49 -38 -63 -10 -15 -11 -21 -4
-17 18 11 16 -5 -3 -29 -15 -19 -16 -19 -9 1 9 29 -7 9 -41 -49 -15 -27 -23
-46 -16 -42 14 9 15 -3 2 -24 -8 -13 -10 -13 -10 -1 0 21 -12 6 -55 -73 -21
-38 -33 -66 -27 -62 7 4 12 5 12 1 0 -13 -62 -127 -66 -122 -3 3 7 29 21 59
15 29 23 49 17 43 -18 -18 -172 -318 -167 -325 3 -4 -8 -36 -25 -71 -16 -35
-30 -57 -30 -49 -1 8 -25 -32 -55 -90 -33 -64 -52 -112 -48 -124 4 -13 1 -16
-7 -11 -8 5 -11 4 -7 -2 9 -14 -5 -50 -87 -238 -36 -82 -66 -141 -67 -130 0
18 -1 17 -10 -3 -5 -13 -7 -27 -4 -32 3 -4 -35 -129 -84 -276 -112 -338 -171
-597 -196 -861 l-7 -73 5571 0 c3064 0 5571 2 5571 5 0 2 -55 88 -122 189 -68
102 -145 222 -172 265 -26 44 -53 79 -58 78 -6 -1 -13 4 -16 12 -3 9 0 11 9 6
7 -5 2 11 -12 36 -14 24 -52 90 -83 147 -32 56 -62 100 -67 97 -5 -4 -8 2 -7
12 3 23 -80 186 -91 179 -4 -3 -13 6 -20 20 -14 31 -14 37 -1 29 6 -4 -15 45
-47 109 -31 63 -60 111 -64 105 -3 -6 -11 4 -18 21 -6 18 -8 36 -5 41 2 5 -4
25 -15 46 -11 21 -21 31 -21 23 -1 -8 -12 9 -26 39 -27 61 -30 75 -9 47 21
-28 18 -8 -5 34 -11 19 -20 28 -20 20 -1 -19 -39 49 -39 70 0 8 8 -1 19 -20
27 -49 25 -33 -4 31 -14 30 -25 47 -26 39 0 -13 -1 -13 -10 0 -5 8 -10 22 -10
30 0 13 1 13 10 0 14 -22 12 -7 -5 34 -9 20 -19 34 -24 32 -5 -3 -16 14 -25
37 -18 49 -21 69 -5 47 9 -12 10 -11 4 5 -15 42 -78 214 -107 290 -17 44 -37
96 -44 115 -7 19 -13 29 -14 23 0 -7 -6 -13 -14 -13 -9 0 -12 -9 -10 -28 7
-55 -118 368 -182 615 -138 533 -215 933 -275 1423 -51 419 -62 663 -79 1630
-6 355 -16 653 -21 662 -12 23 -11 28 3 25 26 -5 37 -32 31 -74 -7 -56 3 -93
26 -93 42 0 89 29 100 62 15 46 38 188 46 284 6 76 8 81 28 77 29 -6 244 65
349 115 106 49 218 139 389 311 119 119 229 248 229 268 0 3 20 38 44 77 91
147 109 193 114 291 l4 90 -49 75 c-75 113 -184 239 -349 400 -82 80 -149 148
-149 152 0 14 -109 117 -118 111 -11 -6 -78 57 -71 68 4 8 -14 24 -28 24 -5 0
-7 3 -5 6 4 10 -25 39 -34 34 -4 -3 -45 32 -90 77 -137 140 -302 318 -294 318
5 0 0 9 -10 20 -9 10 -22 18 -28 17 -6 -1 -12 5 -12 13 0 8 -6 14 -13 13 -12
-3 -92 85 -93 102 -1 15 -20 35 -29 30 -4 -3 -13 2 -20 10 -7 8 -9 15 -5 15 5
0 0 9 -10 20 -10 11 -21 17 -25 15 -10 -6 -81 75 -75 85 5 8 -25 38 -40 39 -5
1 -10 7 -10 14 -1 6 -6 11 -12 10 -14 -3 -65 56 -58 66 5 9 -55 70 -70 71 -5
0 -10 5 -10 10 0 6 -4 10 -10 10 -15 0 -285 273 -279 282 3 5 2 7 -3 6 -11 -4
-93 63 -88 72 2 4 -10 20 -27 36 -17 16 -28 23 -24 17 10 -18 -9 -16 -24 2 -7
8 -9 15 -4 15 4 0 -3 11 -16 25 -12 13 -26 22 -30 20 -10 -6 -45 21 -45 36 0
7 -8 13 -17 15 -26 3 -89 55 -81 67 3 5 2 7 -4 4 -14 -9 -55 22 -47 35 4 6 3
8 -3 5 -12 -8 -55 21 -48 33 3 4 -3 7 -13 6 -9 0 -16 5 -14 12 1 8 -1 11 -6 8
-13 -8 -83 44 -76 56 4 7 2 8 -5 4 -13 -9 -64 28 -53 39 4 3 3 6 -3 5 -22 -5
-36 1 -29 12 4 6 3 8 -4 4 -6 -3 -61 27 -122 69 l-112 75 -1487 0 -1486 -1
-65 -38z"/>
<path d="M8837 10319 c7 -7 15 -10 18 -7 3 3 -2 9 -12 12 -14 6 -15 5 -6 -5z"/>
<path d="M9690 9444 c0 -7 71 -36 76 -31 2 2 -14 11 -36 20 -22 8 -40 13 -40
11z"/>
<path d="M9790 9400 c8 -5 20 -10 25 -10 6 0 3 5 -5 10 -8 5 -19 10 -25 10 -5
0 -3 -5 5 -10z"/>
<path d="M9735 9370 c10 -11 20 -20 23 -20 3 0 -3 9 -13 20 -10 11 -20 20 -23
20 -3 0 3 -9 13 -20z"/>
<path d="M9970 9340 c8 -5 22 -9 30 -9 10 0 8 3 -5 9 -27 12 -43 12 -25 0z"/>
<path d="M10030 9320 c8 -5 20 -10 25 -10 6 0 3 5 -5 10 -8 5 -19 10 -25 10
-5 0 -3 -5 5 -10z"/>
<path d="M10130 9280 c8 -5 20 -10 25 -10 6 0 3 5 -5 10 -8 5 -19 10 -25 10
-5 0 -3 -5 5 -10z"/>
<path d="M10170 9266 c0 -3 9 -10 20 -16 11 -6 20 -8 20 -6 0 3 -9 10 -20 16
-11 6 -20 8 -20 6z"/>
<path d="M10270 9216 c0 -2 8 -10 18 -17 15 -13 16 -12 3 4 -13 16 -21 21 -21
13z"/>
<path d="M9948 9173 c7 -3 16 -2 19 1 4 3 -2 6 -13 5 -11 0 -14 -3 -6 -6z"/>
<path d="M10050 9140 c8 -5 22 -9 30 -9 10 0 8 3 -5 9 -27 12 -43 12 -25 0z"/>
<path d="M10265 9070 c27 -12 43 -12 25 0 -8 5 -22 9 -30 9 -10 0 -8 -3 5 -9z"/>
<path d="M10318 9053 c7 -3 16 -2 19 1 4 3 -2 6 -13 5 -11 0 -14 -3 -6 -6z"/>
<path d="M10360 9042 c8 -5 26 -13 40 -16 17 -5 20 -4 10 2 -8 5 -26 13 -40
16 -17 5 -20 4 -10 -2z"/>
<path d="M10430 9016 c0 -2 7 -7 16 -10 8 -3 12 -2 9 4 -6 10 -25 14 -25 6z"/>
<path d="M10419 8757 c5 -5 19 -7 32 -5 20 3 19 5 -9 9 -20 3 -29 2 -23 -4z"/>
<path d="M10660 8450 c0 -5 5 -10 11 -10 5 0 7 5 4 10 -3 6 -8 10 -11 10 -2 0
-4 -4 -4 -10z"/>
<path d="M10832 8105 c0 -16 2 -22 5 -12 2 9 2 23 0 30 -3 6 -5 -1 -5 -18z"/>
<path d="M11052 7994 c8 -9 23 -14 33 -12 12 2 7 7 -16 15 -30 12 -32 11 -17
-3z"/>
<path d="M9523 4775 c0 -22 2 -30 4 -17 2 12 2 30 0 40 -3 9 -5 -1 -4 -23z"/>
<path d="M9532 4660 c0 -19 2 -27 5 -17 2 9 2 25 0 35 -3 9 -5 1 -5 -18z"/>
<path d="M9541 4564 c0 -11 3 -14 6 -6 3 7 2 16 -1 19 -3 4 -6 -2 -5 -13z"/>
<path d="M9572 4350 c0 -14 2 -19 5 -12 2 6 2 18 0 25 -3 6 -5 1 -5 -13z"/>
<path d="M9582 4270 c0 -14 2 -19 5 -12 2 6 2 18 0 25 -3 6 -5 1 -5 -13z"/>
<path d="M9592 4190 c0 -14 2 -19 5 -12 2 6 2 18 0 25 -3 6 -5 1 -5 -13z"/>
<path d="M9602 4120 c0 -14 2 -19 5 -12 2 6 2 18 0 25 -3 6 -5 1 -5 -13z"/>
<path d="M9612 4060 c0 -14 4 -36 8 -50 6 -20 8 -21 8 -5 0 11 -4 34 -8 50 -7
27 -8 27 -8 5z"/>
<path d="M9631 3954 c0 -11 3 -14 6 -6 3 7 2 16 -1 19 -3 4 -6 -2 -5 -13z"/>
<path d="M9641 3884 c0 -11 3 -14 6 -6 3 7 2 16 -1 19 -3 4 -6 -2 -5 -13z"/>
<path d="M9652 3830 c0 -14 2 -19 5 -12 2 6 2 18 0 25 -3 6 -5 1 -5 -13z"/>
<path d="M9661 3774 c0 -11 3 -14 6 -6 3 7 2 16 -1 19 -3 4 -6 -2 -5 -13z"/>
<path d="M9671 3724 c0 -11 3 -14 6 -6 3 7 2 16 -1 19 -3 4 -6 -2 -5 -13z"/>
<path d="M442 1735 c-17 -37 -14 -45 4 -12 9 16 14 31 11 33 -2 2 -9 -7 -15
-21z"/>
<path d="M402 1645 c-17 -37 -14 -45 4 -12 9 16 14 31 11 33 -2 2 -9 -7 -15
-21z"/>
<path d="M336 1483 c-6 -14 -5 -15 5 -6 7 7 10 15 7 18 -3 3 -9 -2 -12 -12z"/>
<path d="M221 1178 c-17 -51 -31 -98 -30 -103 0 -6 16 35 35 89 18 55 32 101
30 103 -2 3 -18 -38 -35 -89z"/>
<path d="M151 954 c0 -11 3 -14 6 -6 3 7 2 16 -1 19 -3 4 -6 -2 -5 -13z"/>
<path d="M61 584 c0 -11 3 -14 6 -6 3 7 2 16 -1 19 -3 4 -6 -2 -5 -13z"/>
<path d="M21 344 c0 -11 3 -14 6 -6 3 7 2 16 -1 19 -3 4 -6 -2 -5 -13z"/>
<path d="M12 225 c0 -16 2 -22 5 -12 2 9 2 23 0 30 -3 6 -5 -1 -5 -18z"/>
</g>
</svg>
